<?xml version="1.0" encoding="utf-8"?>
<!-- Generator: Adobe Illustrator 27.0.0, SVG Export Plug-In . SVG Version: 6.00 Build 0)  -->
<svg version="1.1" id="Ebene_1" xmlns="http://www.w3.org/2000/svg" xmlns:xlink="http://www.w3.org/1999/xlink" x="0px" y="0px"
	 viewBox="0 0 332.3 141.7" style="enable-background:new 0 0 332.3 141.7;" xml:space="preserve">
<style type="text/css">
	.st0{fill:none;}
	.st1{fill:url(#SVGID_1_);}
	.st2{fill:#181716;}
</style>
<g>
	<path class="st0" d="M138.7,80.6c1.1-8.1,0.7-16.4-1.3-24.2c-2-7.9-5.6-15.2-10.4-21.7c-9.6-13-24.2-21.9-40.1-24.4
		c-15.8-2.7-32.5,1.2-45.7,10.5c-6.6,4.6-12.3,10.5-16.7,17.3C20.1,45,17,52.7,15.6,60.7c-1.5,8-1.3,16.4,0.4,24.4
		c1.8,8,5.1,15.8,9.8,22.5c4.8,6.8,10.9,12.6,17.9,17c7.1,4.4,15,7.4,23.2,8.7c3.3,0.5,6.6,0.8,10,0.8c5,0,10-0.6,14.8-1.8
		c8.1-2,15.7-5.6,22.4-10.5c0.1-0.1,0.1-0.1,0.2-0.2l15.4-16.8c0.3-0.4,0.6-0.9,0.8-1.3C134.8,96.6,137.5,88.7,138.7,80.6z"/>
	
		<linearGradient id="SVGID_1_" gradientUnits="userSpaceOnUse" x1="-262.4664" y1="367.6499" x2="-261.4664" y2="367.6499" gradientTransform="matrix(94.7998 -94.7998 -94.7998 -94.7998 59763.918 10088.7031)">
		<stop  offset="0" style="stop-color:#0D9AD7"/>
		<stop  offset="1" style="stop-color:#055AA6"/>
	</linearGradient>
	<path class="st1" d="M114.1,121.9c-6.7,4.9-14.3,8.5-22.4,10.5c-4.8,1.2-9.8,1.8-14.8,1.8c-3.3,0-6.7-0.3-10-0.8
		c-8.2-1.4-16.1-4.3-23.2-8.7c-7-4.4-13.1-10.3-17.9-17c-4.8-6.8-8.1-14.5-9.8-22.5c-1.8-8-1.9-16.4-0.4-24.4
		c1.5-8,4.5-15.7,8.9-22.6c4.4-6.8,10.1-12.7,16.7-17.3c13.2-9.3,29.9-13.2,45.7-10.5c15.8,2.5,30.5,11.4,40.1,24.4
		c4.8,6.5,8.4,13.9,10.4,21.7c2,7.8,2.5,16.1,1.3,24.2c-1.2,8.1-3.9,16-8.1,23c-0.3,0.4-0.6,0.9-0.8,1.3l0,4.3
		c1.1-1.4,2.1-2.8,3-4.3c4.6-7.2,7.8-15.3,9.3-23.8c1.5-8.5,1.4-17.3-0.5-25.8c-1.9-8.5-5.4-16.6-10.4-23.8
		c-5-7.1-11.5-13.3-18.9-17.9C104.8,9,96.5,5.9,87.8,4.5C84.4,3.9,81,3.7,77.5,3.7h-0.4c-5.2,0-10.4,0.6-15.4,1.8
		c-8.5,2.1-16.6,5.9-23.6,11.1c-7,5.2-12.9,11.8-17.4,19.3c-4.4,7.5-7.3,15.8-8.6,24.3c-1.2,8.5-0.8,17.3,1.4,25.6
		c2.1,8.3,5.9,16.1,11,22.9c10.1,13.7,25.6,23.2,42.3,25.8c16.4,2.8,33.7-1.1,47.5-10.6l0-2.1C114.2,121.8,114.2,121.9,114.1,121.9z
		"/>
</g>
<path class="st2" d="M116.7,123.7v-23.4c-0.3,0.7-11.6,24.2-11.6,24.2s-10.3-23.5-10.5-24.2V77.4c0,0,10.5,24.9,10.8,25.8
	c0.3-0.9,12-25.8,12-25.8h9.7v46.3H116.7z"/>
<path class="st2" d="M51.4,26.8h20.8c12,0,16.2,7.5,16.2,14.9c0,6.9-4.6,14.9-16.2,14.9H61.9V73H51.4V26.8z M77.5,41.7
	c0-2.2-1.2-5.1-5-5.1H61.9v10.2h10.7C76.1,46.8,77.5,44.2,77.5,41.7"/>
<polygon class="st2" points="94.6,26.8 105.1,26.8 105.1,62.9 127.2,62.9 127.2,73.1 94.6,73.1 "/>
<path class="st2" d="M71.1,77.4c6.4,0,11.2,2,15.6,6c-3.2,3.6-6.1,6.5-6.6,7c-2.4-2.1-5.5-3.3-8.7-3.3c-7.3,0-12.6,6-12.6,13.2
	c0,7.1,5.4,13.1,12.7,13.1c3,0,6.3-1.1,8.6-3.1c0.8,0.8,5.7,6.1,6.6,7.1c-4.4,4.2-9.9,6.2-15.6,6.2c-12.9,0-23.2-10.2-23.2-23.1
	C47.9,87.8,58.3,77.4,71.1,77.4"/>
<g>
	<path class="st2" d="M161.3,87.1c0-0.2,0.2-0.4,0.4-0.4h1.4c0.2,0,0.4,0.2,0.4,0.4v12.4h5.7c0.2,0,0.4,0.2,0.4,0.4v1.2
		c0,0.2-0.2,0.4-0.4,0.4h-7.5c-0.2,0-0.4-0.2-0.4-0.4V87.1z"/>
	<path class="st2" d="M173.5,87.1c0-0.2,0.2-0.4,0.4-0.4h1.4c0.2,0,0.4,0.2,0.4,0.4v14c0,0.2-0.2,0.4-0.4,0.4h-1.4
		c-0.2,0-0.4-0.2-0.4-0.4V87.1z"/>
	<path class="st2" d="M181.5,87.1c0-0.2,0.2-0.4,0.4-0.4h8.5c0.2,0,0.4,0.2,0.4,0.4v1.2c0,0.2-0.2,0.4-0.4,0.4h-6.7v4.9h5.6
		c0.2,0,0.4,0.2,0.4,0.4v1.2c0,0.2-0.2,0.4-0.4,0.4h-5.6v5.6c0,0.2-0.2,0.4-0.4,0.4h-1.4c-0.2,0-0.4-0.2-0.4-0.4V87.1z"/>
	<path class="st2" d="M195.2,87.1c0-0.2,0.2-0.4,0.4-0.4h8.5c0.2,0,0.4,0.2,0.4,0.4v1.2c0,0.2-0.2,0.4-0.4,0.4h-6.7V93h5.6
		c0.2,0,0.4,0.2,0.4,0.4v1.2c0,0.2-0.2,0.4-0.4,0.4h-5.6v4.5h6.7c0.2,0,0.4,0.2,0.4,0.4v1.2c0,0.2-0.2,0.4-0.4,0.4h-8.5
		c-0.2,0-0.4-0.2-0.4-0.4V87.1z"/>
	<path class="st2" d="M222.2,86.5c2.1,0,3.7,0.7,5.1,2c0.2,0.2,0.2,0.4,0,0.6l-0.9,1c-0.1,0.2-0.3,0.2-0.5,0c-1-0.9-2.3-1.4-3.7-1.4
		c-3,0-5.3,2.5-5.3,5.5s2.3,5.5,5.3,5.5c1.5,0,2.6-0.6,3.6-1.4c0.2-0.1,0.4-0.1,0.5,0l1,1c0.2,0.1,0.1,0.4,0,0.6
		c-1.4,1.4-3.3,2-5.1,2c-4.2,0-7.6-3.4-7.6-7.6C214.6,89.9,218,86.5,222.2,86.5z"/>
	<path class="st2" d="M234.9,94.4l-4.9-7.1c-0.2-0.3,0-0.6,0.3-0.6h1.6c0.2,0,0.3,0.1,0.3,0.2l3.8,5.4l3.8-5.4
		c0.1-0.1,0.2-0.2,0.3-0.2h1.6c0.3,0,0.5,0.3,0.3,0.6l-5,7v6.7c0,0.2-0.2,0.4-0.4,0.4h-1.4c-0.2,0-0.4-0.2-0.4-0.4V94.4z"/>
	<path class="st2" d="M252.1,86.5c2.1,0,3.7,0.7,5.1,2c0.2,0.2,0.2,0.4,0,0.6l-0.9,1c-0.1,0.2-0.3,0.2-0.5,0c-1-0.9-2.3-1.4-3.7-1.4
		c-3,0-5.3,2.5-5.3,5.5s2.3,5.5,5.3,5.5c1.5,0,2.6-0.6,3.6-1.4c0.2-0.1,0.4-0.1,0.5,0l1,1c0.2,0.1,0.1,0.4,0,0.6
		c-1.4,1.4-3.3,2-5.1,2c-4.2,0-7.6-3.4-7.6-7.6C244.5,89.9,247.9,86.5,252.1,86.5z"/>
	<path class="st2" d="M262,87.1c0-0.2,0.2-0.4,0.4-0.4h1.4c0.2,0,0.4,0.2,0.4,0.4v12.4h5.7c0.2,0,0.4,0.2,0.4,0.4v1.2
		c0,0.2-0.2,0.4-0.4,0.4h-7.5c-0.2,0-0.4-0.2-0.4-0.4V87.1z"/>
	<path class="st2" d="M274.2,87.1c0-0.2,0.2-0.4,0.4-0.4h8.5c0.2,0,0.4,0.2,0.4,0.4v1.2c0,0.2-0.2,0.4-0.4,0.4h-6.7V93h5.6
		c0.2,0,0.4,0.2,0.4,0.4v1.2c0,0.2-0.2,0.4-0.4,0.4h-5.6v4.5h6.7c0.2,0,0.4,0.2,0.4,0.4v1.2c0,0.2-0.2,0.4-0.4,0.4h-8.5
		c-0.2,0-0.4-0.2-0.4-0.4V87.1z"/>
</g>
<g>
	<path class="st2" d="M162.9,109c0-0.2,0.2-0.3,0.4-0.3h0.3c0.1,0,0.3,0.1,0.4,0.2l4.4,10.8h0.1l4.4-10.8c0-0.1,0.2-0.2,0.4-0.2h0.3
		c0.2,0,0.3,0.1,0.4,0.3l2.6,14.2c0.1,0.3-0.1,0.5-0.4,0.5h-1.4c-0.2,0-0.4-0.1-0.4-0.3l-1.6-9.4c0,0-0.1,0-0.1,0l-3.8,9.7
		c0,0.1-0.2,0.2-0.4,0.2h-0.4c-0.2,0-0.3-0.1-0.4-0.2l-3.8-9.7c0,0-0.1,0-0.1,0l-1.5,9.4c0,0.1-0.2,0.3-0.4,0.3h-1.4
		c-0.3,0-0.4-0.2-0.4-0.5L162.9,109z"/>
	<path class="st2" d="M179.4,123.1l6.5-14.2c0.1-0.1,0.3-0.2,0.4-0.2h0.2c0.1,0,0.3,0.1,0.4,0.2l6.4,14.2c0.1,0.3,0,0.5-0.4,0.5
		h-1.3c-0.3,0-0.4-0.1-0.5-0.3l-1.3-2.9h-6.9c-0.4,1-0.9,1.9-1.3,2.9c-0.1,0.1-0.2,0.3-0.5,0.3h-1.3
		C179.4,123.7,179.2,123.4,179.4,123.1z M188.9,118.7l-2.6-5.8h-0.1l-2.6,5.8H188.9z"/>
	<path class="st2" d="M197,109.1c0-0.2,0.2-0.4,0.4-0.4h0.5l9.2,10.6h0v-10c0-0.2,0.2-0.4,0.4-0.4h1.4c0.2,0,0.4,0.2,0.4,0.4v14.2
		c0,0.2-0.2,0.4-0.4,0.4h-0.5l-9.2-10.9h0v10.3c0,0.2-0.2,0.4-0.4,0.4h-1.3c-0.2,0-0.4-0.2-0.4-0.4V109.1z"/>
	<path class="st2" d="M213.1,123.1l6.5-14.2c0.1-0.1,0.3-0.2,0.4-0.2h0.2c0.1,0,0.3,0.1,0.4,0.2l6.4,14.2c0.1,0.3,0,0.5-0.4,0.5
		h-1.3c-0.3,0-0.4-0.1-0.5-0.3l-1.3-2.9h-6.9c-0.4,1-0.9,1.9-1.3,2.9c-0.1,0.1-0.2,0.3-0.5,0.3h-1.3
		C213.2,123.7,213,123.4,213.1,123.1z M222.7,118.7l-2.6-5.8H220l-2.6,5.8H222.7z"/>
	<path class="st2" d="M237.2,108.7c2,0,3.7,0.7,5.1,2c0.2,0.2,0.2,0.4,0,0.6c-0.3,0.3-0.6,0.7-1,1c-0.2,0.2-0.3,0.2-0.5,0
		c-1-0.9-2.3-1.4-3.6-1.4c-3,0-5.3,2.5-5.3,5.5c0,2.9,2.3,5.5,5.3,5.5c1.8,0,3-0.6,3.2-0.7v-2.4h-2.1c-0.2,0-0.4-0.2-0.4-0.4v-1.2
		c0-0.2,0.2-0.4,0.4-0.4h3.8c0.2,0,0.4,0.2,0.4,0.4c0,1.7,0,3.4,0,5.1c0,0.1-0.1,0.3-0.2,0.3c0,0-2.2,1.4-5.2,1.4
		c-4.2,0-7.6-3.4-7.6-7.6C229.6,112.1,233,108.7,237.2,108.7z"/>
	<path class="st2" d="M247.6,109.3c0-0.2,0.2-0.4,0.4-0.4h8.5c0.2,0,0.4,0.2,0.4,0.4v1.2c0,0.2-0.2,0.4-0.4,0.4h-6.7v4.3h5.6
		c0.2,0,0.4,0.2,0.4,0.4v1.2c0,0.2-0.2,0.4-0.4,0.4h-5.6v4.5h6.7c0.2,0,0.4,0.2,0.4,0.4v1.2c0,0.2-0.2,0.4-0.4,0.4H248
		c-0.2,0-0.4-0.2-0.4-0.4V109.3z"/>
	<path class="st2" d="M263.4,109c0-0.2,0.2-0.3,0.4-0.3h0.3c0.1,0,0.3,0.1,0.4,0.2l4.4,10.8h0.1l4.4-10.8c0-0.1,0.2-0.2,0.4-0.2h0.3
		c0.2,0,0.3,0.1,0.4,0.3l2.6,14.2c0.1,0.3-0.1,0.5-0.4,0.5h-1.4c-0.2,0-0.4-0.1-0.4-0.3l-1.6-9.4c0,0-0.1,0-0.1,0l-3.8,9.7
		c0,0.1-0.2,0.2-0.4,0.2h-0.4c-0.2,0-0.3-0.1-0.4-0.2l-3.8-9.7c0,0-0.1,0-0.1,0l-1.5,9.4c0,0.1-0.2,0.3-0.4,0.3h-1.4
		c-0.3,0-0.4-0.2-0.4-0.5L263.4,109z"/>
	<path class="st2" d="M281.8,109.3c0-0.2,0.2-0.4,0.4-0.4h8.5c0.2,0,0.4,0.2,0.4,0.4v1.2c0,0.2-0.2,0.4-0.4,0.4H284v4.3h5.6
		c0.2,0,0.4,0.2,0.4,0.4v1.2c0,0.2-0.2,0.4-0.4,0.4H284v4.5h6.7c0.2,0,0.4,0.2,0.4,0.4v1.2c0,0.2-0.2,0.4-0.4,0.4h-8.5
		c-0.2,0-0.4-0.2-0.4-0.4V109.3z"/>
	<path class="st2" d="M295.9,109.1c0-0.2,0.2-0.4,0.4-0.4h0.5l9.2,10.6h0v-10c0-0.2,0.2-0.4,0.4-0.4h1.4c0.2,0,0.4,0.2,0.4,0.4v14.2
		c0,0.2-0.2,0.4-0.4,0.4h-0.5l-9.2-10.9h0v10.3c0,0.2-0.2,0.4-0.4,0.4h-1.3c-0.2,0-0.4-0.2-0.4-0.4V109.1z"/>
	<path class="st2" d="M316,110.9h-3.4c-0.2,0-0.4-0.2-0.4-0.4v-1.2c0-0.2,0.2-0.4,0.4-0.4h9.1c0.2,0,0.4,0.2,0.4,0.4v1.2
		c0,0.2-0.2,0.4-0.4,0.4h-3.4v12.4c0,0.2-0.2,0.4-0.4,0.4h-1.4c-0.2,0-0.4-0.2-0.4-0.4V110.9z"/>
</g>
<g>
	<path class="st2" d="M161.3,64.9c0-0.2,0.2-0.4,0.4-0.4h4.8c2.6,0,4.7,2.1,4.7,4.7c0,2.6-2.1,4.8-4.7,4.8h-3.1v5
		c0,0.2-0.2,0.4-0.4,0.4h-1.4c-0.2,0-0.4-0.2-0.4-0.4V64.9z M166.4,71.9c1.5,0,2.7-1.2,2.7-2.7c0-1.4-1.2-2.5-2.7-2.5h-2.9v5.2
		H166.4z"/>
	<path class="st2" d="M175.5,64.9c0-0.2,0.2-0.4,0.4-0.4h5.7c2.5,0,4.6,2,4.6,4.5c0,1.9-1.3,3.6-3.1,4.3l2.9,5.4
		c0.1,0.3,0,0.6-0.4,0.6h-1.6c-0.2,0-0.3-0.1-0.3-0.2l-2.8-5.6h-3.2v5.4c0,0.2-0.2,0.4-0.4,0.4H176c-0.2,0-0.4-0.2-0.4-0.4V64.9z
		 M181.5,71.7c1.4,0,2.6-1.2,2.6-2.6c0-1.4-1.2-2.5-2.6-2.5h-3.8v5.1H181.5z"/>
	<path class="st2" d="M197.8,64.3c4.2,0,7.6,3.4,7.6,7.6c0,4.2-3.4,7.6-7.6,7.6s-7.6-3.4-7.6-7.6C190.2,67.7,193.6,64.3,197.8,64.3z
		 M197.8,77.4c3,0,5.5-2.5,5.5-5.5c0-3-2.5-5.5-5.5-5.5c-3,0-5.5,2.5-5.5,5.5C192.3,75,194.8,77.4,197.8,77.4z"/>
	<path class="st2" d="M210.1,64.9c0-0.2,0.2-0.4,0.4-0.4h4.9c4.1,0,7.4,3.3,7.4,7.4c0,4.1-3.3,7.4-7.4,7.4h-4.9
		c-0.2,0-0.4-0.2-0.4-0.4V64.9z M215,77.3c3.1,0,5.4-2.3,5.4-5.4c0-3.1-2.3-5.4-5.4-5.4h-2.8v10.8H215z"/>
	<path class="st2" d="M227.3,64.9c0-0.2,0.2-0.4,0.4-0.4h1.4c0.2,0,0.4,0.2,0.4,0.4v8.7c0,2.1,1.4,3.8,3.5,3.8
		c2.2,0,3.5-1.6,3.5-3.7v-8.8c0-0.2,0.2-0.4,0.4-0.4h1.4c0.2,0,0.4,0.2,0.4,0.4v8.9c0,3.2-2.4,5.7-5.8,5.7c-3.3,0-5.7-2.5-5.7-5.7
		V64.9z"/>
	<path class="st2" d="M250.9,64.3c2.1,0,3.7,0.7,5.1,2c0.2,0.2,0.2,0.4,0,0.6l-0.9,1c-0.1,0.2-0.3,0.2-0.5,0c-1-0.9-2.3-1.4-3.7-1.4
		c-3,0-5.3,2.5-5.3,5.5c0,3,2.3,5.5,5.3,5.5c1.5,0,2.6-0.6,3.6-1.4c0.2-0.1,0.4-0.1,0.5,0l1,1c0.2,0.1,0.1,0.4,0,0.6
		c-1.4,1.4-3.3,2-5.1,2c-4.2,0-7.6-3.4-7.6-7.6C243.3,67.7,246.7,64.3,250.9,64.3z"/>
	<path class="st2" d="M262.8,66.5h-3.4c-0.2,0-0.4-0.2-0.4-0.4v-1.2c0-0.2,0.2-0.4,0.4-0.4h9.1c0.2,0,0.4,0.2,0.4,0.4v1.2
		c0,0.2-0.2,0.4-0.4,0.4H265v12.4c0,0.2-0.2,0.4-0.4,0.4h-1.4c-0.2,0-0.4-0.2-0.4-0.4V66.5z"/>
</g>
</svg>
